<svg xmlns="http://www.w3.org/2000/svg" xmlns:xlink="http://www.w3.org/1999/xlink" version="1.1" id="logo" x="0" y="0" width="519.67" height="94.81" viewBox="0 0 519.67 94.81" xml:space="preserve" enable-background="new 0 0 519.667 94.808"><style type="text/css">.st0{fill:#B6CCDA;} .st1{fill:#1C3A6A;}</style><path class="st1" d="M156.18 54.31V28.16c0-2.84-1.67-5.04-5.4-5.04 -1.87 0-3.46 0.54-4.7 1.79v29.4h-10.8V28.02c0-2.97-2.08-4.9-5.82-4.9 -1.93 0-3.04 0.2-4.36 0.69v30.5H114.31V19.1c4.15-1.86 8.58-2.76 15.08-2.76 6.17 0 9.69 1.66 11.84 3.74 2.35-2.01 6.16-3.74 12.31-3.74 8.86 0 13.43 5.25 13.43 11.83v26.15H156.18zM189.74 55.02c-10.79 0-16.33-4.02-16.33-11.76 0-9.62 9.62-12.46 20.82-13.49v-1.74c0-3.86-2.63-4.97-6.57-4.97 -3.6 0-7.27 1.17-9.69 2.28l-2.35-6.16c2.63-1.11 7.48-2.84 14.05-2.84 8.45 0 14.67 3.53 14.67 13.63v22.28C201.23 53.92 196.18 55.02 189.74 55.02zM194.23 34.74c-6.5 0.62-10.72 2.15-10.72 8.11 0 4.35 2.49 6.22 6.78 6.22 1.59 0 2.97-0.29 3.94-0.76V34.74zM225.38 54.88c-7.82 0-11.21-5.05-11.21-10.81V24.01h-4.09v-6.98h4.09V9.07L224.96 6.3v10.73h5.74v6.98h-5.74v19.24c0 2.83 1.04 4.36 3.46 4.36 0.9 0 1.39-0.14 2.28-0.41v6.64C229.81 54.26 227.87 54.88 225.38 54.88zM250.5 55.02c-8.86 0-15.36-6.92-15.36-19.44 0-12.6 6.99-19.24 15.29-19.24 4.56 0 7.47 1.31 9.14 2.69l-2.21 5.95c-0.98-0.76-2.28-1.45-4.43-1.45 -4.71 0-6.92 4.29-6.92 11.9 0 7.55 2.56 11.91 6.85 11.91 2.01 0 3.4-0.55 4.51-1.52l2.28 6.5C258.04 53.84 255.21 55.02 250.5 55.02zM286.41 54.31v-25.94c0-2.9-1.31-5.25-5.54-5.25 -1.72 0-3.11 0.27-4.56 1.04v30.15h-10.79V0h10.79v18.27c2.49-1.1 5.13-1.72 8.02-1.72 9.34 0 12.89 5.4 12.89 11.62v26.15H286.41z"/><path class="st0" d="M20.9 54.32l6.99-26.08c0.71-2.63 0.21-5.18-4.14-5.18 -2.15 0-3.42 0.34-4.78 0.76L10.8 54.32H0L9.44 19.1c4.18-1.66 9.74-2.76 16.38-2.76 11.84 0 14.7 5.05 12.89 11.83l-7.02 26.15H20.9zM65.55 16.34c-10.73 0-18.84 7.54-21.97 19.24 -3.18 11.89 1.37 19.44 12.79 19.44 6.3 0 10.76-1.17 14.15-2.69l-0.69-6.72c-2.28 1.04-5.87 2.01-10.23 2.01 -5.2 0-7.27-2.47-6.86-7.4l0 0c0-1.71 0.34-3.96 0.79-5.96l-0.04 0.01c0.06-0.25 0.14-0.46 0.19-0.69 0-0.01 0-0.03 0.01-0.04l0 0c1.81-7.23 5.54-10.83 9.75-10.83 4.02 0 5.38 2.91 3.62 9.49l-7.75 1.19 -1.45 5.38 18.14-2.49c0.13-0.48 0.36-1.04 0.48-1.53C79.46 23.53 76.27 16.34 65.55 16.34zM90.78 54.88c-7.82 0-9.85-5.05-8.31-10.81l5.37-20.06h-4.08l1.87-6.98h4.09l2.13-7.96L103.39 6.3l-2.87 10.73h5.75l-1.88 6.98h-5.74l-5.16 19.24c-0.75 2.84-0.13 4.36 2.29 4.36 0.91 0 1.43-0.14 2.4-0.41l-1.78 6.64C95.39 54.26 93.27 54.88 90.78 54.88z"/><path class="st1" d="M122.59 77.38v17.11h-4.79V77.38h-3.66v-3.22h12.11v3.22H122.59zM138.87 94.48l-2.75-6.09c-0.53-1.15-1.3-2.13-2.33-2.6v8.69h-4.67V74.98c1.63-0.74 3.78-1.15 6.09-1.15 5.17 0 8.15 2.04 8.15 6.18 0 2.72-1.8 4.55-4.61 5.35v0.06c0.8 0.74 1.48 1.77 1.98 2.72l3.43 6.35H138.87zM135.32 76.55c-0.59 0-1.15 0.09-1.54 0.24v7.06c0.32 0.09 0.8 0.12 1.27 0.12 2.31 0 3.61-1.69 3.61-3.78C138.66 77.76 137.57 76.55 135.32 76.55zM158.04 94.48l-1.21-4.52h-6.15l-1.24 4.52h-4.58l6.62-20.33h5l6.59 20.33H158.04zM154.38 80.6c-0.27-1.04-0.41-1.95-0.53-2.63h-0.06c-0.09 0.68-0.24 1.69-0.5 2.63l-1.83 6.62h4.67L154.38 80.6zM172.43 94.48h-4.16l-6.12-20.33h5.05l2.87 11.79c0.24 1 0.36 1.95 0.44 2.66h0.06c0.09-0.74 0.24-1.77 0.47-2.66l2.96-11.79h4.55L172.43 94.48zM180.65 94.48V74.15h10.37v3.22h-5.58v5.17h4.88v3.13h-4.87v5.59h5.59v3.22H180.65zM194.27 94.48V74.15h4.79v17.11h5.17v3.22H194.27zM221.48 77.38v17.11h-4.79V77.38h-3.66v-3.22h12.11v3.22H221.48zM227.98 94.48V74.15h10.37v3.22h-5.58v5.17h4.88v3.13h-4.87v5.59h5.59v3.22H227.98zM248.69 94.81c-5.64 0-8.04-5.17-8.04-10.49 0-5.32 2.4-10.49 8.04-10.49 1.83 0 3.28 0.41 4.43 1.19l-1.03 2.92c-0.65-0.38-1.42-0.65-2.45-0.65 -3.01 0-4.05 3.52-4.05 6.97 0 3.37 1.15 6.89 4.02 6.89 0.98 0 1.77-0.27 2.39-0.65l1.12 3.1C251.97 94.37 250.52 94.81 248.69 94.81zM265.74 94.48v-8.81h-5.14v8.81h-4.79V74.15h4.79v8.39h5.14v-8.39h4.79v20.33H265.74zM286.19 94.48l-6.8-11.46c-0.35-0.62-0.8-1.51-1.06-2.13h-0.06c0.09 1.21 0.12 1.75 0.12 2.39v11.2h-4.02V74.15h4.2l6.24 10.55c0.53 0.92 0.59 1.04 1.06 2.04h0.06c-0.06-0.68-0.12-1.45-0.12-2.31V74.15h4.05v20.33H286.19zM301.02 94.81c-5.44 0-7.95-4.46-7.95-10.49 0-6.02 2.51-10.49 7.95-10.49s7.95 4.46 7.95 10.49C308.97 90.35 306.46 94.81 301.02 94.81zM301.02 77.05c-2.42 0-3.13 3.08-3.13 7.18 0 4.11 0.71 7.15 3.13 7.15s3.13-3.04 3.13-7.15C304.15 80.13 303.44 77.05 301.02 77.05zM312.25 94.48V74.15h4.79v17.11h5.17v3.22H312.25zM331.6 94.81c-5.44 0-7.95-4.46-7.95-10.49 0-6.02 2.51-10.49 7.95-10.49 5.43 0 7.94 4.46 7.94 10.49C339.55 90.35 337.04 94.81 331.6 94.81zM331.6 77.05c-2.43 0-3.13 3.08-3.13 7.18 0 4.11 0.71 7.15 3.14 7.15 2.42 0 3.13-3.04 3.13-7.15C334.73 80.13 334.02 77.05 331.6 77.05zM351.45 94.81c-6.12 0-9.31-4.22-9.31-10.46 0-5.94 3.48-10.52 9.75-10.52 2.13 0 3.75 0.41 5.2 1.21l-1.3 2.95c-0.86-0.44-2.1-0.77-3.46-0.77 -3.6 0-5.38 2.95-5.38 7.42 0 4.43 1.86 6.83 4.25 6.83 0.59 0 1.18-0.06 1.6-0.24v-5.82h-2.6v-2.87h7.06v11.11C355.92 94.4 353.67 94.81 351.45 94.81zM369.01 85.94v8.54h-4.79v-8.54l-5.41-11.79h5.02l2.92 7.68h0.06l3.07-7.68h4.55L369.01 85.94zM388.1 94.81c-2.25 0-4.22-0.41-5.64-1.18l1.22-3.28c1.18 0.65 2.54 0.95 3.75 0.95 1.8 0 2.87-0.92 2.87-2.27 0-3.66-7.59-2.74-7.59-9.25 0-3.46 2.72-5.94 6.86-5.94 1.95 0 3.69 0.44 4.99 1.19l-1.07 2.92c-0.88-0.5-2.18-0.83-3.28-0.83 -1.68 0-2.81 0.8-2.81 2.25 0 3.67 7.8 2.57 7.8 9.22C395.19 92.15 392.41 94.81 388.1 94.81zM405.65 94.81c-5.44 0-7.95-4.46-7.95-10.49 0-6.02 2.51-10.49 7.95-10.49 5.43 0 7.94 4.46 7.94 10.49C413.59 90.35 411.08 94.81 405.65 94.81zM405.65 77.05c-2.43 0-3.13 3.08-3.13 7.18 0 4.11 0.71 7.15 3.13 7.15 2.42 0 3.13-3.04 3.13-7.15C408.78 80.13 408.07 77.05 405.65 77.05zM416.87 94.48V74.15h4.79v17.11h5.17v3.22H416.87zM443.53 88.48c0 3.9-2.95 6.35-7.15 6.35s-7.15-2.45-7.15-6.35v-14.33h4.79v14.39c0 1.66 1.15 2.63 2.54 2.63 1.39 0 2.51-0.97 2.51-2.63V74.15h4.46V88.48zM454.81 77.38v17.11h-4.79V77.38h-3.67v-3.22h12.12v3.22H454.81zM461.37 94.48V74.15h4.79v20.33H461.37zM477.39 94.81c-5.44 0-7.95-4.46-7.95-10.49 0-6.02 2.51-10.49 7.95-10.49 5.44 0 7.95 4.46 7.95 10.49C485.34 90.35 482.82 94.81 477.39 94.81zM477.39 77.05c-2.43 0-3.13 3.08-3.13 7.18 0 4.11 0.71 7.15 3.13 7.15 2.42 0 3.13-3.04 3.13-7.15C480.52 80.13 479.81 77.05 477.39 77.05zM500.37 94.48l-6.79-11.46c-0.35-0.62-0.8-1.51-1.07-2.13h-0.06c0.09 1.21 0.12 1.75 0.12 2.39v11.2h-4.02V74.15h4.2l6.23 10.55c0.53 0.92 0.59 1.04 1.06 2.04h0.06c-0.06-0.68-0.12-1.45-0.12-2.31V74.15h4.05v20.33H500.37zM512.57 94.81c-2.25 0-4.23-0.41-5.64-1.18l1.21-3.28c1.18 0.65 2.54 0.95 3.75 0.95 1.8 0 2.87-0.92 2.87-2.27 0-3.66-7.59-2.74-7.59-9.25 0-3.46 2.72-5.94 6.86-5.94 1.95 0 3.69 0.44 5 1.19l-1.07 2.92c-0.89-0.5-2.19-0.83-3.28-0.83 -1.68 0-2.8 0.8-2.8 2.25 0 3.67 7.8 2.57 7.8 9.22C519.67 92.15 516.89 94.81 512.57 94.81z"/></svg>